<svg width="61" height="74" viewBox="0 0 61 74" fill="none" xmlns="http://www.w3.org/2000/svg">
<mask id="path-1-inside-1_4260_34895" fill="white">
<path d="M6.00185 51.3948L9.86612 56.1494C11.3526 57.9462 11.7106 60.4347 10.7815 62.5827L7.64324 69.7735C7.54689 69.9995 7.54001 70.2532 7.62604 70.486C7.7155 70.7154 7.891 70.8996 8.11122 70.9969C8.22822 71.0525 8.3521 71.0804 8.47941 71.0804C8.84416 71.0838 9.17794 70.8649 9.32246 70.5243L12.4607 63.3334C13.6754 60.5599 13.2349 57.3311 11.3251 54.9921L7.45398 50.2375H7.45054C6.69695 49.3095 6.55246 48.0166 7.0789 46.9392C7.60882 45.8653 8.71342 45.198 9.90053 45.2432C10.5784 45.271 11.2253 45.5316 11.738 45.9835L17.0234 50.5711C19.4562 52.6843 22.9042 53.1187 25.7774 51.6729L37.467 45.7888C38.4615 45.3613 39.6176 45.7714 40.1303 46.7341C40.6396 47.6968 40.3437 48.8925 39.4387 49.4972L30.1064 54.9191C29.8862 55.0338 29.721 55.2389 29.6522 55.4822C29.5833 55.722 29.6143 55.9827 29.7382 56.2016C29.8621 56.4206 30.072 56.5804 30.3128 56.6395C30.5572 56.6986 30.8152 56.6569 31.0251 56.5214L40.3469 51.0995C41.3207 50.526 42.0054 49.5632 42.2291 48.4476C42.2876 48.0583 42.2876 47.6621 42.2291 47.2729L44.4039 46.3449C45.3536 45.9278 46.4616 46.3344 46.9262 47.2694C47.3907 48.2043 47.0535 49.3443 46.1554 49.8657L35.0894 56.2155C34.7281 56.424 34.5492 56.855 34.6559 57.2616C34.766 57.6683 35.1307 57.9533 35.5505 57.9498C35.7054 57.9498 35.8602 57.9081 35.9979 57.8281L47.1017 51.4435C48.0307 50.9187 48.6949 50.022 48.9357 48.9759C49.0389 48.5311 49.0561 48.0688 48.9907 47.6136L51.1551 46.4458H51.1586C51.9603 46.0218 52.9479 46.2477 53.4881 46.9845C53.7806 47.405 53.8907 47.9264 53.7875 48.4268C53.6843 48.9308 53.3814 49.3687 52.9479 49.6364L41.9815 56.226C41.5445 56.4866 41.4034 57.0531 41.6615 57.4945C41.8267 57.7761 42.126 57.9498 42.4495 57.9498C42.6147 57.9498 42.7764 57.9047 42.9175 57.8178L53.8636 51.2282C55.1402 50.4705 55.825 49.0004 55.5909 47.5232L56.0417 47.346H56.0383C57.1015 46.9393 58.299 47.3703 58.8668 48.3643C59.173 48.903 59.2487 49.5425 59.0767 50.1368C58.9184 50.7137 58.5433 51.2038 58.0306 51.5062L30.1165 67.1879C29.9789 67.2643 29.8619 67.379 29.7759 67.5146L26.6755 72.5923C26.414 73.0268 26.5482 73.5933 26.9783 73.8609C27.1228 73.9548 27.2915 73.9999 27.4635 73.9999C27.7801 74.0034 28.076 73.8366 28.2446 73.5655L31.2177 68.6893L58.8833 53.1188C59.8434 52.5766 60.5522 51.673 60.8482 50.6025C61.1441 49.5321 61.003 48.3851 60.4628 47.419C59.4512 45.6221 57.2936 44.8367 55.377 45.5665L54.8643 45.7716C54.4238 45.212 53.8354 44.7949 53.1678 44.5655C53.1988 44.4717 53.216 44.3779 53.2229 44.2771V41.9623C53.2229 40.4261 51.9876 39.1819 50.4701 39.1819H49.276V10.7725C49.276 9.78886 48.8906 8.84698 48.2024 8.15191C47.5141 7.45684 46.5781 7.06749 45.6044 7.06749H37.5936L28.6674 0.651664C27.4562 -0.217221 25.832 -0.217221 24.6207 0.651664L15.6258 7.06749H7.61506C5.58828 7.06749 3.94689 8.72535 3.94689 10.7725V39.1819H2.75282C1.23186 39.1819 0 40.4261 0 41.9623V44.2979C0 44.5412 0.0963527 44.7775 0.268402 44.9513C0.440451 45.1251 0.674447 45.2224 0.918757 45.2224H5.97365C4.50773 47.0158 4.50773 49.6051 5.97365 51.395L6.00185 51.3948ZM41.5129 45.2605H42.3662L41.7056 45.5559C41.6058 45.4377 41.5679 45.3439 41.5129 45.2605ZM47.6964 45.2605H49.5304L48.3192 45.9104H48.3226C48.1402 45.6532 47.9269 45.4238 47.6894 45.2222L47.6964 45.2605ZM47.4417 10.7724V39.1818H38.4398V8.91992H45.6074H45.604C46.0926 8.91992 46.5571 9.11455 46.9013 9.46211C47.2454 9.80966 47.4417 10.2823 47.4417 10.7724ZM25.6464 2.1634C26.2279 1.75677 26.9952 1.75677 27.5734 2.1634L36.6026 8.65228V39.2371H16.6167V8.65228L25.6464 2.1634ZM5.78114 10.7724C5.78114 9.75058 6.60354 8.91992 7.61518 8.91992H14.7828V39.1818H5.78087L5.78114 10.7724ZM1.83425 41.9587V41.9621C1.83425 41.4478 2.24717 41.0341 2.75303 41.0341H50.4698C50.7107 41.0341 50.9447 41.1315 51.1167 41.3052C51.2888 41.479 51.3852 41.7153 51.3852 41.9621V43.3697H18.9503C18.441 43.3697 18.0315 43.7833 18.0315 44.2977C18.0315 44.8086 18.441 45.2222 18.9503 45.2222H34.4383L24.9959 49.9768C22.7833 51.0924 20.1235 50.7553 18.2515 49.1253L13.7369 45.2049H15.3232C15.8325 45.2049 16.242 44.7913 16.242 44.2769C16.242 43.766 15.8325 43.3524 15.3232 43.3524H1.83484L1.83425 41.9587ZM19.8822 17.2132L24.8132 17.2167C25.0541 17.2167 25.2881 17.1193 25.4602 16.9456C25.6322 16.7718 25.7286 16.5355 25.7286 16.2887V11.3117C25.7286 11.0649 25.6322 10.8286 25.4602 10.6548C25.2881 10.481 25.0541 10.3837 24.8132 10.3837H19.8856C19.3764 10.3837 18.9669 10.8008 18.9669 11.3117V16.2887C18.9669 16.7996 19.3763 17.2167 19.8856 17.2167L19.8822 17.2132ZM20.801 12.2362L23.8945 12.2396V15.3641L20.801 15.3607V12.2362ZM28.4091 17.2132H33.3367V17.2167C33.581 17.2167 33.815 17.1193 33.987 16.9456C34.1591 16.7718 34.2554 16.5355 34.2554 16.2887V11.3117C34.2554 11.0649 34.1591 10.8286 33.987 10.6548C33.815 10.481 33.581 10.3837 33.3367 10.3837H28.4091C27.9033 10.3837 27.4903 10.8008 27.4903 11.3117V16.2887C27.4903 16.7996 27.9032 17.2167 28.4091 17.2167V17.2132ZM29.3279 12.2362H32.4213V15.3607H29.3279V12.2362ZM19.8855 26.8092H24.8131C25.0539 26.8092 25.2879 26.7119 25.46 26.5381C25.632 26.3643 25.7284 26.128 25.7284 25.8812V20.866C25.7284 20.6228 25.632 20.3864 25.46 20.2126C25.2879 20.0389 25.0539 19.9415 24.8131 19.9415H19.8855C19.3762 19.9415 18.9667 20.3551 18.9667 20.8661V25.8813C18.9667 26.128 19.063 26.3644 19.2351 26.5382C19.4071 26.7119 19.6412 26.8092 19.8855 26.8092ZM20.8042 21.8322H23.8943V24.9532H20.8008L20.8042 21.8322ZM28.4089 26.8092H33.3365C33.5808 26.8092 33.8148 26.7119 33.9869 26.5381C34.1589 26.3643 34.2553 26.128 34.2553 25.8812V20.866C34.2553 20.6228 34.1589 20.3864 33.9869 20.2126C33.8148 20.0389 33.5808 19.9415 33.3365 19.9415H28.4089C27.9031 19.9415 27.4901 20.3551 27.4901 20.8661V25.8813C27.4901 26.128 27.5865 26.3644 27.7585 26.5382C27.9306 26.7119 28.1646 26.8092 28.4089 26.8092ZM29.3277 21.8322H32.4212L32.4177 24.9532H29.3277L29.3277 21.8322ZM19.8853 36.3252H24.8129C25.0538 36.3252 25.2877 36.2279 25.4598 36.0541C25.6319 35.8803 25.7282 35.644 25.7282 35.4007V30.4236C25.7282 30.1769 25.6319 29.9405 25.4598 29.7668C25.2878 29.593 25.0538 29.4957 24.8129 29.4957H19.8853C19.376 29.4957 18.9665 29.9093 18.9665 30.4237V35.4007C18.9665 35.644 19.0629 35.8803 19.2349 36.0541C19.407 36.2279 19.641 36.3252 19.8853 36.3252ZM20.8041 31.3481H23.8941V34.4726H20.8006L20.8041 31.3481ZM28.4122 36.3252H33.3398H33.3363C33.5806 36.3252 33.8146 36.2279 33.9867 36.0541C34.1587 35.8803 34.2551 35.644 34.2551 35.4007V30.4236C34.2551 30.1769 34.1587 29.9405 33.9867 29.7668C33.8146 29.593 33.5806 29.4957 33.3363 29.4957H28.4087C27.9029 29.4957 27.49 29.9093 27.49 30.4237V35.4007C27.49 35.644 27.5863 35.8803 27.7584 36.0541C27.9304 36.2279 28.1644 36.3252 28.4087 36.3252L28.4122 36.3252ZM29.331 31.3481H32.4244V34.4726H29.3275L29.331 31.3481ZM13.5954 11.8851H13.5885C13.5885 12.1318 13.4921 12.3682 13.3201 12.5419C13.148 12.7157 12.914 12.813 12.6732 12.813H7.89012C7.38429 12.813 6.97478 12.3995 6.97478 11.885C6.97478 11.3741 7.38425 10.9605 7.89012 10.9605H12.6732C12.9175 10.9605 13.1515 11.0578 13.3235 11.2351C13.4956 11.4089 13.5919 11.6487 13.5885 11.8954L13.5954 11.8851ZM13.5954 15.3606H13.5885C13.5885 15.6073 13.4921 15.8437 13.3201 16.0174C13.148 16.1912 12.914 16.2885 12.6732 16.2885H7.89012C7.38429 16.2885 6.97478 15.875 6.97478 15.3605C6.97478 14.8496 7.38425 14.436 7.89012 14.436H12.6732C12.9175 14.436 13.1515 14.5333 13.3235 14.7106C13.4956 14.8844 13.5919 15.1242 13.5885 15.3709L13.5954 15.3606ZM13.5954 18.8361H13.5885C13.5885 19.0828 13.4921 19.3192 13.3201 19.493C13.148 19.6667 12.914 19.764 12.6732 19.764H7.89012C7.38429 19.764 6.97478 19.3505 6.97478 18.8361C6.97478 18.3251 7.38425 17.9115 7.89012 17.9115H12.6732C12.9175 17.9115 13.1515 18.0088 13.3235 18.1861C13.4956 18.3599 13.5919 18.5997 13.5885 18.8464L13.5954 18.8361ZM13.5954 22.3012L13.5885 22.3046C13.5885 22.5479 13.4921 22.7843 13.3201 22.9581C13.148 23.1318 12.914 23.2292 12.6732 23.2292H7.89012C7.38429 23.2292 6.97478 22.8156 6.97478 22.3046C6.97478 21.7902 7.38425 21.3766 7.89012 21.3766H12.6732C12.9175 21.3766 13.1515 21.4739 13.3235 21.6512C13.4956 21.8284 13.5919 22.0648 13.5885 22.3115L13.5954 22.3012ZM13.5954 25.7767L13.5885 25.7802C13.5885 26.0234 13.4921 26.2598 13.3201 26.4336C13.148 26.6073 12.914 26.7047 12.6732 26.7047H7.89012C7.38429 26.7047 6.97478 26.2911 6.97478 25.7801C6.97478 25.2657 7.38425 24.8521 7.89012 24.8521H12.6732C12.9175 24.8521 13.1515 24.9494 13.3235 25.1267C13.4956 25.3039 13.5919 25.5403 13.5885 25.787L13.5954 25.7767ZM13.5954 29.2522L13.5885 29.2557C13.5885 29.4989 13.4921 29.7353 13.3201 29.9091C13.148 30.0828 12.914 30.1802 12.6732 30.1802H7.89012C7.38429 30.1802 6.97478 29.7666 6.97478 29.2556C6.97478 28.7413 7.38425 28.3276 7.89012 28.3276H12.6732C12.9175 28.3276 13.1515 28.4249 13.3235 28.6022C13.4956 28.7794 13.5919 29.0158 13.5885 29.2625L13.5954 29.2522ZM13.5954 32.7277L13.5885 32.7312C13.5885 32.9745 13.4921 33.2108 13.3201 33.3846C13.148 33.5583 12.914 33.6557 12.6732 33.6557H7.89012C7.38429 33.6557 6.97478 33.2421 6.97478 32.7311C6.97478 32.2168 7.38425 31.8031 7.89012 31.8031H12.6732C12.9175 31.8031 13.1515 31.9005 13.3235 32.0777C13.4956 32.255 13.5919 32.4913 13.5885 32.7381L13.5954 32.7277ZM13.5954 36.2032L13.5885 36.2067C13.5885 36.45 13.4921 36.6863 13.3201 36.8601C13.148 37.0338 12.914 37.1312 12.6732 37.1312H7.89012C7.38429 37.1312 6.97478 36.7176 6.97478 36.2066C6.97478 35.6923 7.38425 35.2786 7.89012 35.2786H12.6732C12.9175 35.2786 13.1515 35.376 13.3235 35.5532C13.4956 35.7305 13.5919 35.9668 13.5885 36.2136L13.5954 36.2032ZM39.6781 11.8955C39.6781 11.3846 40.0875 10.9675 40.5934 10.9675H45.3764C45.8823 10.9675 46.2918 11.3845 46.2918 11.8955C46.2918 12.4064 45.8823 12.8235 45.3764 12.8235H40.5934C40.0876 12.8235 39.6781 12.4064 39.6781 11.8955ZM39.6781 15.371C39.6781 14.8601 40.0875 14.443 40.5934 14.443H45.3764C45.8823 14.443 46.2918 14.86 46.2918 15.371C46.2918 15.8819 45.8823 16.299 45.3764 16.299H40.5934C40.0876 16.299 39.6781 15.8819 39.6781 15.371ZM39.6781 18.8465C39.6781 18.3356 40.0875 17.9185 40.5934 17.9185H45.3764C45.8823 17.9185 46.2918 18.3356 46.2918 18.8465C46.2918 19.3574 45.8823 19.7745 45.3764 19.7745H40.5934C40.0876 19.7745 39.6781 19.3574 39.6781 18.8465ZM39.6781 22.3116C39.6781 21.8007 40.0875 21.3871 40.5934 21.3871H45.3764C45.8823 21.3871 46.2918 21.8006 46.2918 22.3116C46.2918 22.826 45.8823 23.2396 45.3764 23.2396H40.5934C40.0876 23.2396 39.6781 22.826 39.6781 22.3116ZM39.6781 25.7871C39.6781 25.2762 40.0875 24.8626 40.5934 24.8626H45.3764C45.8823 24.8626 46.2918 25.2761 46.2918 25.7871C46.2918 26.3015 45.8823 26.7151 45.3764 26.7151H40.5934C40.0876 26.7151 39.6781 26.3015 39.6781 25.7871ZM39.6781 29.2626C39.6781 28.7517 40.0875 28.3381 40.5934 28.3381H45.3764C45.8823 28.3381 46.2918 28.7516 46.2918 29.2626C46.2918 29.777 45.8823 30.1906 45.3764 30.1906H40.5934C40.0876 30.1906 39.6781 29.777 39.6781 29.2626ZM39.6781 32.7381C39.6781 32.2272 40.0875 31.8136 40.5934 31.8136H45.3764C45.8823 31.8136 46.2918 32.2271 46.2918 32.7381C46.2918 33.2525 45.8823 33.6661 45.3764 33.6661H40.5934C40.0876 33.6661 39.6781 33.2525 39.6781 32.7381ZM39.6781 36.2136C39.6781 35.7027 40.0875 35.2891 40.5934 35.2891H45.3764C45.8823 35.2891 46.2918 35.7027 46.2918 36.2136C46.2918 36.728 45.8823 37.1416 45.3764 37.1416H40.5934C40.0876 37.1416 39.6781 36.728 39.6781 36.2136Z"/>
</mask>
<path d="M6.00185 51.3948L9.86612 56.1494C11.3526 57.9462 11.7106 60.4347 10.7815 62.5827L7.64324 69.7735C7.54689 69.9995 7.54001 70.2532 7.62604 70.486C7.7155 70.7154 7.891 70.8996 8.11122 70.9969C8.22822 71.0525 8.3521 71.0804 8.47941 71.0804C8.84416 71.0838 9.17794 70.8649 9.32246 70.5243L12.4607 63.3334C13.6754 60.5599 13.2349 57.3311 11.3251 54.9921L7.45398 50.2375H7.45054C6.69695 49.3095 6.55246 48.0166 7.0789 46.9392C7.60882 45.8653 8.71342 45.198 9.90053 45.2432C10.5784 45.271 11.2253 45.5316 11.738 45.9835L17.0234 50.5711C19.4562 52.6843 22.9042 53.1187 25.7774 51.6729L37.467 45.7888C38.4615 45.3613 39.6176 45.7714 40.1303 46.7341C40.6396 47.6968 40.3437 48.8925 39.4387 49.4972L30.1064 54.9191C29.8862 55.0338 29.721 55.2389 29.6522 55.4822C29.5833 55.722 29.6143 55.9827 29.7382 56.2016C29.8621 56.4206 30.072 56.5804 30.3128 56.6395C30.5572 56.6986 30.8152 56.6569 31.0251 56.5214L40.3469 51.0995C41.3207 50.526 42.0054 49.5632 42.2291 48.4476C42.2876 48.0583 42.2876 47.6621 42.2291 47.2729L44.4039 46.3449C45.3536 45.9278 46.4616 46.3344 46.9262 47.2694C47.3907 48.2043 47.0535 49.3443 46.1554 49.8657L35.0894 56.2155C34.7281 56.424 34.5492 56.855 34.6559 57.2616C34.766 57.6683 35.1307 57.9533 35.5505 57.9498C35.7054 57.9498 35.8602 57.9081 35.9979 57.8281L47.1017 51.4435C48.0307 50.9187 48.6949 50.022 48.9357 48.9759C49.0389 48.5311 49.0561 48.0688 48.9907 47.6136L51.1551 46.4458H51.1586C51.9603 46.0218 52.9479 46.2477 53.4881 46.9845C53.7806 47.405 53.8907 47.9264 53.7875 48.4268C53.6843 48.9308 53.3814 49.3687 52.9479 49.6364L41.9815 56.226C41.5445 56.4866 41.4034 57.0531 41.6615 57.4945C41.8267 57.7761 42.126 57.9498 42.4495 57.9498C42.6147 57.9498 42.7764 57.9047 42.9175 57.8178L53.8636 51.2282C55.1402 50.4705 55.825 49.0004 55.5909 47.5232L56.0417 47.346H56.0383C57.1015 46.9393 58.299 47.3703 58.8668 48.3643C59.173 48.903 59.2487 49.5425 59.0767 50.1368C58.9184 50.7137 58.5433 51.2038 58.0306 51.5062L30.1165 67.1879C29.9789 67.2643 29.8619 67.379 29.7759 67.5146L26.6755 72.5923C26.414 73.0268 26.5482 73.5933 26.9783 73.8609C27.1228 73.9548 27.2915 73.9999 27.4635 73.9999C27.7801 74.0034 28.076 73.8366 28.2446 73.5655L31.2177 68.6893L58.8833 53.1188C59.8434 52.5766 60.5522 51.673 60.8482 50.6025C61.1441 49.5321 61.003 48.3851 60.4628 47.419C59.4512 45.6221 57.2936 44.8367 55.377 45.5665L54.8643 45.7716C54.4238 45.212 53.8354 44.7949 53.1678 44.5655C53.1988 44.4717 53.216 44.3779 53.2229 44.2771V41.9623C53.2229 40.4261 51.9876 39.1819 50.4701 39.1819H49.276V10.7725C49.276 9.78886 48.8906 8.84698 48.2024 8.15191C47.5141 7.45684 46.5781 7.06749 45.6044 7.06749H37.5936L28.6674 0.651664C27.4562 -0.217221 25.832 -0.217221 24.6207 0.651664L15.6258 7.06749H7.61506C5.58828 7.06749 3.94689 8.72535 3.94689 10.7725V39.1819H2.75282C1.23186 39.1819 0 40.4261 0 41.9623V44.2979C0 44.5412 0.0963527 44.7775 0.268402 44.9513C0.440451 45.1251 0.674447 45.2224 0.918757 45.2224H5.97365C4.50773 47.0158 4.50773 49.6051 5.97365 51.395L6.00185 51.3948ZM41.5129 45.2605H42.3662L41.7056 45.5559C41.6058 45.4377 41.5679 45.3439 41.5129 45.2605ZM47.6964 45.2605H49.5304L48.3192 45.9104H48.3226C48.1402 45.6532 47.9269 45.4238 47.6894 45.2222L47.6964 45.2605ZM47.4417 10.7724V39.1818H38.4398V8.91992H45.6074H45.604C46.0926 8.91992 46.5571 9.11455 46.9013 9.46211C47.2454 9.80966 47.4417 10.2823 47.4417 10.7724ZM25.6464 2.1634C26.2279 1.75677 26.9952 1.75677 27.5734 2.1634L36.6026 8.65228V39.2371H16.6167V8.65228L25.6464 2.1634ZM5.78114 10.7724C5.78114 9.75058 6.60354 8.91992 7.61518 8.91992H14.7828V39.1818H5.78087L5.78114 10.7724ZM1.83425 41.9587V41.9621C1.83425 41.4478 2.24717 41.0341 2.75303 41.0341H50.4698C50.7107 41.0341 50.9447 41.1315 51.1167 41.3052C51.2888 41.479 51.3852 41.7153 51.3852 41.9621V43.3697H18.9503C18.441 43.3697 18.0315 43.7833 18.0315 44.2977C18.0315 44.8086 18.441 45.2222 18.9503 45.2222H34.4383L24.9959 49.9768C22.7833 51.0924 20.1235 50.7553 18.2515 49.1253L13.7369 45.2049H15.3232C15.8325 45.2049 16.242 44.7913 16.242 44.2769C16.242 43.766 15.8325 43.3524 15.3232 43.3524H1.83484L1.83425 41.9587ZM19.8822 17.2132L24.8132 17.2167C25.0541 17.2167 25.2881 17.1193 25.4602 16.9456C25.6322 16.7718 25.7286 16.5355 25.7286 16.2887V11.3117C25.7286 11.0649 25.6322 10.8286 25.4602 10.6548C25.2881 10.481 25.0541 10.3837 24.8132 10.3837H19.8856C19.3764 10.3837 18.9669 10.8008 18.9669 11.3117V16.2887C18.9669 16.7996 19.3763 17.2167 19.8856 17.2167L19.8822 17.2132ZM20.801 12.2362L23.8945 12.2396V15.3641L20.801 15.3607V12.2362ZM28.4091 17.2132H33.3367V17.2167C33.581 17.2167 33.815 17.1193 33.987 16.9456C34.1591 16.7718 34.2554 16.5355 34.2554 16.2887V11.3117C34.2554 11.0649 34.1591 10.8286 33.987 10.6548C33.815 10.481 33.581 10.3837 33.3367 10.3837H28.4091C27.9033 10.3837 27.4903 10.8008 27.4903 11.3117V16.2887C27.4903 16.7996 27.9032 17.2167 28.4091 17.2167V17.2132ZM29.3279 12.2362H32.4213V15.3607H29.3279V12.2362ZM19.8855 26.8092H24.8131C25.0539 26.8092 25.2879 26.7119 25.46 26.5381C25.632 26.3643 25.7284 26.128 25.7284 25.8812V20.866C25.7284 20.6228 25.632 20.3864 25.46 20.2126C25.2879 20.0389 25.0539 19.9415 24.8131 19.9415H19.8855C19.3762 19.9415 18.9667 20.3551 18.9667 20.8661V25.8813C18.9667 26.128 19.063 26.3644 19.2351 26.5382C19.4071 26.7119 19.6412 26.8092 19.8855 26.8092ZM20.8042 21.8322H23.8943V24.9532H20.8008L20.8042 21.8322ZM28.4089 26.8092H33.3365C33.5808 26.8092 33.8148 26.7119 33.9869 26.5381C34.1589 26.3643 34.2553 26.128 34.2553 25.8812V20.866C34.2553 20.6228 34.1589 20.3864 33.9869 20.2126C33.8148 20.0389 33.5808 19.9415 33.3365 19.9415H28.4089C27.9031 19.9415 27.4901 20.3551 27.4901 20.8661V25.8813C27.4901 26.128 27.5865 26.3644 27.7585 26.5382C27.9306 26.7119 28.1646 26.8092 28.4089 26.8092ZM29.3277 21.8322H32.4212L32.4177 24.9532H29.3277L29.3277 21.8322ZM19.8853 36.3252H24.8129C25.0538 36.3252 25.2877 36.2279 25.4598 36.0541C25.6319 35.8803 25.7282 35.644 25.7282 35.4007V30.4236C25.7282 30.1769 25.6319 29.9405 25.4598 29.7668C25.2878 29.593 25.0538 29.4957 24.8129 29.4957H19.8853C19.376 29.4957 18.9665 29.9093 18.9665 30.4237V35.4007C18.9665 35.644 19.0629 35.8803 19.2349 36.0541C19.407 36.2279 19.641 36.3252 19.8853 36.3252ZM20.8041 31.3481H23.8941V34.4726H20.8006L20.8041 31.3481ZM28.4122 36.3252H33.3398H33.3363C33.5806 36.3252 33.8146 36.2279 33.9867 36.0541C34.1587 35.8803 34.2551 35.644 34.2551 35.4007V30.4236C34.2551 30.1769 34.1587 29.9405 33.9867 29.7668C33.8146 29.593 33.5806 29.4957 33.3363 29.4957H28.4087C27.9029 29.4957 27.49 29.9093 27.49 30.4237V35.4007C27.49 35.644 27.5863 35.8803 27.7584 36.0541C27.9304 36.2279 28.1644 36.3252 28.4087 36.3252L28.4122 36.3252ZM29.331 31.3481H32.4244V34.4726H29.3275L29.331 31.3481ZM13.5954 11.8851H13.5885C13.5885 12.1318 13.4921 12.3682 13.3201 12.5419C13.148 12.7157 12.914 12.813 12.6732 12.813H7.89012C7.38429 12.813 6.97478 12.3995 6.97478 11.885C6.97478 11.3741 7.38425 10.9605 7.89012 10.9605H12.6732C12.9175 10.9605 13.1515 11.0578 13.3235 11.2351C13.4956 11.4089 13.5919 11.6487 13.5885 11.8954L13.5954 11.8851ZM13.5954 15.3606H13.5885C13.5885 15.6073 13.4921 15.8437 13.3201 16.0174C13.148 16.1912 12.914 16.2885 12.6732 16.2885H7.89012C7.38429 16.2885 6.97478 15.875 6.97478 15.3605C6.97478 14.8496 7.38425 14.436 7.89012 14.436H12.6732C12.9175 14.436 13.1515 14.5333 13.3235 14.7106C13.4956 14.8844 13.5919 15.1242 13.5885 15.3709L13.5954 15.3606ZM13.5954 18.8361H13.5885C13.5885 19.0828 13.4921 19.3192 13.3201 19.493C13.148 19.6667 12.914 19.764 12.6732 19.764H7.89012C7.38429 19.764 6.97478 19.3505 6.97478 18.8361C6.97478 18.3251 7.38425 17.9115 7.89012 17.9115H12.6732C12.9175 17.9115 13.1515 18.0088 13.3235 18.1861C13.4956 18.3599 13.5919 18.5997 13.5885 18.8464L13.5954 18.8361ZM13.5954 22.3012L13.5885 22.3046C13.5885 22.5479 13.4921 22.7843 13.3201 22.9581C13.148 23.1318 12.914 23.2292 12.6732 23.2292H7.89012C7.38429 23.2292 6.97478 22.8156 6.97478 22.3046C6.97478 21.7902 7.38425 21.3766 7.89012 21.3766H12.6732C12.9175 21.3766 13.1515 21.4739 13.3235 21.6512C13.4956 21.8284 13.5919 22.0648 13.5885 22.3115L13.5954 22.3012ZM13.5954 25.7767L13.5885 25.7802C13.5885 26.0234 13.4921 26.2598 13.3201 26.4336C13.148 26.6073 12.914 26.7047 12.6732 26.7047H7.89012C7.38429 26.7047 6.97478 26.2911 6.97478 25.7801C6.97478 25.2657 7.38425 24.8521 7.89012 24.8521H12.6732C12.9175 24.8521 13.1515 24.9494 13.3235 25.1267C13.4956 25.3039 13.5919 25.5403 13.5885 25.787L13.5954 25.7767ZM13.5954 29.2522L13.5885 29.2557C13.5885 29.4989 13.4921 29.7353 13.3201 29.9091C13.148 30.0828 12.914 30.1802 12.6732 30.1802H7.89012C7.38429 30.1802 6.97478 29.7666 6.97478 29.2556C6.97478 28.7413 7.38425 28.3276 7.89012 28.3276H12.6732C12.9175 28.3276 13.1515 28.4249 13.3235 28.6022C13.4956 28.7794 13.5919 29.0158 13.5885 29.2625L13.5954 29.2522ZM13.5954 32.7277L13.5885 32.7312C13.5885 32.9745 13.4921 33.2108 13.3201 33.3846C13.148 33.5583 12.914 33.6557 12.6732 33.6557H7.89012C7.38429 33.6557 6.97478 33.2421 6.97478 32.7311C6.97478 32.2168 7.38425 31.8031 7.89012 31.8031H12.6732C12.9175 31.8031 13.1515 31.9005 13.3235 32.0777C13.4956 32.255 13.5919 32.4913 13.5885 32.7381L13.5954 32.7277ZM13.5954 36.2032L13.5885 36.2067C13.5885 36.45 13.4921 36.6863 13.3201 36.8601C13.148 37.0338 12.914 37.1312 12.6732 37.1312H7.89012C7.38429 37.1312 6.97478 36.7176 6.97478 36.2066C6.97478 35.6923 7.38425 35.2786 7.89012 35.2786H12.6732C12.9175 35.2786 13.1515 35.376 13.3235 35.5532C13.4956 35.7305 13.5919 35.9668 13.5885 36.2136L13.5954 36.2032ZM39.6781 11.8955C39.6781 11.3846 40.0875 10.9675 40.5934 10.9675H45.3764C45.8823 10.9675 46.2918 11.3845 46.2918 11.8955C46.2918 12.4064 45.8823 12.8235 45.3764 12.8235H40.5934C40.0876 12.8235 39.6781 12.4064 39.6781 11.8955ZM39.6781 15.371C39.6781 14.8601 40.0875 14.443 40.5934 14.443H45.3764C45.8823 14.443 46.2918 14.86 46.2918 15.371C46.2918 15.8819 45.8823 16.299 45.3764 16.299H40.5934C40.0876 16.299 39.6781 15.8819 39.6781 15.371ZM39.6781 18.8465C39.6781 18.3356 40.0875 17.9185 40.5934 17.9185H45.3764C45.8823 17.9185 46.2918 18.3356 46.2918 18.8465C46.2918 19.3574 45.8823 19.7745 45.3764 19.7745H40.5934C40.0876 19.7745 39.6781 19.3574 39.6781 18.8465ZM39.6781 22.3116C39.6781 21.8007 40.0875 21.3871 40.5934 21.3871H45.3764C45.8823 21.3871 46.2918 21.8006 46.2918 22.3116C46.2918 22.826 45.8823 23.2396 45.3764 23.2396H40.5934C40.0876 23.2396 39.6781 22.826 39.6781 22.3116ZM39.6781 25.7871C39.6781 25.2762 40.0875 24.8626 40.5934 24.8626H45.3764C45.8823 24.8626 46.2918 25.2761 46.2918 25.7871C46.2918 26.3015 45.8823 26.7151 45.3764 26.7151H40.5934C40.0876 26.7151 39.6781 26.3015 39.6781 25.7871ZM39.6781 29.2626C39.6781 28.7517 40.0875 28.3381 40.5934 28.3381H45.3764C45.8823 28.3381 46.2918 28.7516 46.2918 29.2626C46.2918 29.777 45.8823 30.1906 45.3764 30.1906H40.5934C40.0876 30.1906 39.6781 29.777 39.6781 29.2626ZM39.6781 32.7381C39.6781 32.2272 40.0875 31.8136 40.5934 31.8136H45.3764C45.8823 31.8136 46.2918 32.2271 46.2918 32.7381C46.2918 33.2525 45.8823 33.6661 45.3764 33.6661H40.5934C40.0876 33.6661 39.6781 33.2525 39.6781 32.7381ZM39.6781 36.2136C39.6781 35.7027 40.0875 35.2891 40.5934 35.2891H45.3764C45.8823 35.2891 46.2918 35.7027 46.2918 36.2136C46.2918 36.728 45.8823 37.1416 45.3764 37.1416H40.5934C40.0876 37.1416 39.6781 36.728 39.6781 36.2136Z" stroke="#202020" mask="url(#path-1-inside-1_4260_34895)"/>
</svg>
