<svg width="75" height="58" viewBox="0 0 75 58" fill="none" xmlns="http://www.w3.org/2000/svg">
<path d="M22.8038 32.7889C22.3847 33.1086 21.9036 32.4647 22.3227 32.145L23.9798 30.8817L24.8665 27.718H18.8088L18.0804 30.0119H6.21264L1.55309 41.0493H57.127L65.5007 34.6745L73.2775 40.3986L68.8927 30.0119H57.0781L56.3019 27.718H50.2798L51.1902 30.9661L52.463 31.9029C52.8862 32.2143 52.4177 32.8645 51.9944 32.5531L43.4186 26.241L35.313 32.7646C34.9026 33.0942 34.4059 32.463 34.8163 32.1334L42.7495 25.7485L37.2998 21.7374L22.8038 32.7889ZM50.016 57.1915V55.3866V41.8573H24.515V57.192C33.0153 57.192 41.5156 57.1915 50.016 57.1915ZM50.8157 57.1915H74.6055C75.1315 57.1915 75.1315 57.9995 74.6055 57.9995C49.8685 57.9995 25.1315 58 0.394476 58C-0.131492 58 -0.131492 57.192 0.394476 57.192H1.54627V41.8573H0.948832C0.647125 41.8573 0.458069 41.5336 0.5931 41.2686L5.68637 29.2039H17.4997L18.2281 26.91H25.093L26.012 23.6313L33.4843 23.6357L37.2894 20.7347L41.2249 23.6313H49.1344L50.0533 26.91H56.872L57.6483 29.2039H69.419L74.5236 41.2955C74.6391 41.5698 74.4284 41.8686 74.1398 41.8561L73.2058 41.8573V55.7906H50.8157V57.1915ZM20.0907 13.5262C20.0887 14.0556 19.2921 14.0524 19.2941 13.5231C19.2961 13.135 19.327 12.7769 19.3828 12.4479C17.4338 12.3478 15.4863 14.079 17.2019 15.9603C18.157 17.0078 20.0569 17.7418 22.765 17.2942C24.5472 14.9069 24.7934 13.0224 24.3288 11.8025C23.3563 9.24893 20.1087 9.92409 20.0907 13.5262ZM19.587 11.6395C20.5715 8.80611 24.0273 8.77136 25.0723 11.5153C25.9304 13.7681 24.5333 16.2983 23.2067 18.0361C20.9802 18.436 18.2563 18.3068 16.6146 16.5064C14.3705 14.0455 16.5815 11.4421 19.587 11.6395ZM36.9586 4.29359C36.6796 4.74141 36.0048 4.31217 36.2839 3.86434C36.7221 3.16244 37.1785 2.5692 37.6441 2.07502C33.9334 -0.412337 29.8882 0.726591 30.5557 5.44129C30.9243 8.04479 32.9886 11.0929 37.3996 13.0337C42.4731 11.0048 44.6487 8.16294 45.0724 5.71384C45.9491 0.646842 40.4311 -1.26827 36.9586 4.29359ZM38.2335 1.50517C42.0622 -1.8469 46.6821 1.09949 45.8596 5.85273C45.1481 9.96519 40.9029 12.5242 37.3849 13.9043C33.881 12.4003 30.3393 9.60877 29.7653 5.55492C28.9909 0.0850786 33.8693 -1.50868 38.2335 1.50517ZM54.7399 13.2946C54.2632 13.5146 53.9321 12.7824 54.4087 12.5623C54.7862 12.387 55.1461 12.2523 55.4875 12.154C54.3893 9.99135 52.2009 9.75587 51.2137 11.9698C50.64 13.2564 50.7224 15.1792 52.1795 17.265C55.335 17.7713 57.2807 17.0394 58.2166 15.998C60.1547 13.8412 57.8295 11.8599 54.7399 13.2946ZM56.294 11.9823C59.2453 11.589 60.752 14.3764 58.807 16.5409C57.0965 18.4443 54.0198 18.3996 51.7255 18.0059C50.4132 16.1939 49.5108 13.825 50.4858 11.6384C51.7864 8.72167 54.9216 9.04942 56.294 11.9823ZM58.4539 41.0493H72.8059L65.5108 35.677L58.4539 41.0493ZM70.1144 44.3367H60.3807V50.2762H70.1144V44.3367ZM59.9809 43.5287H70.9141V51.0842H59.581V43.5287H59.9809ZM57.3741 44.3183H53.0382V53.2475H57.3741V44.3183ZM52.6383 43.5103H58.1739V54.0555H52.2384V43.5103H52.6383ZM50.8157 54.9826H72.406V41.8573H50.8157V54.9826ZM2.346 57.192H23.7152V41.8573H2.346V57.192ZM9.48868 45.3572H10.5699V46.4496H9.48868V45.3572ZM7.84674 45.3572H8.92793V46.4496H7.84674V45.3572ZM6.20479 45.3572H7.28599V46.4496H6.20479V45.3572ZM18.5475 45.3572H19.6286V46.4496H18.5475V45.3572ZM16.9055 45.3572H17.9867V46.4496H16.9055V45.3572ZM15.2636 45.3572H16.3448V46.4496H15.2636V45.3572ZM44.594 45.3572H45.6752V46.4496H44.594V45.3572ZM42.9521 45.3572H44.0333V46.4496H42.9521V45.3572ZM41.3101 45.3572H42.3913V46.4496H41.3101V45.3572ZM38.0883 45.3572H39.1695V46.4496H38.0883V45.3572ZM36.4463 45.3572H37.5275V46.4496H36.4463V45.3572ZM34.8044 45.3572H35.8856V46.4496H34.8044V45.3572ZM31.5825 45.3572H32.6637V46.4496H31.5825V45.3572ZM29.9406 45.3572H31.0218V46.4496H29.9406V45.3572ZM28.2987 45.3572H29.3798V46.4496H28.2987V45.3572ZM47.4402 43.5839V56.408H26.5157V43.5839H47.4402ZM46.6405 44.3919H27.3154V55.6H46.6405V44.3919ZM4.67155 43.5839H21.5099V56.408H4.2717V43.5839H4.67155ZM20.7102 44.3919H5.07143V55.6H20.7102V44.3919ZM48.5313 24.4393H42.3227L50.145 30.1968C49.6071 28.2776 49.0692 26.3585 48.5313 24.4393ZM37.0523 39.4878H50.1274L50.1123 33.0013C50.1123 32.472 50.9089 32.472 50.9089 33.0013L50.9258 40.2958C41.8678 40.2958 32.8098 40.2958 23.7518 40.2958L23.7687 33.0013C23.7687 32.472 24.5653 32.472 24.5653 33.0013L24.5503 39.4878H36.2526V33.0115C36.2526 32.4801 37.0523 32.4801 37.0523 33.0115V39.4878ZM38.769 31.591C38.2431 31.591 38.2431 30.783 38.769 30.783H48.34C48.8659 30.783 48.8659 31.591 48.34 31.591H38.769ZM26.3831 31.591C25.8571 31.591 25.8571 30.783 26.3831 30.783H34.2271C34.7531 30.783 34.7531 31.591 34.2271 31.591H26.3831ZM25.0347 30.0774L32.4301 24.4393H26.615L25.0347 30.0774ZM38.9906 23.616V27.9554H35.5216V23.616H38.9906ZM38.1908 24.424H36.3213V27.1474H38.1908V24.424ZM43.9789 33.2806V37.4907H46.6255V33.2806H43.9789ZM43.1792 37.4907V33.2806H40.5326V37.4907H43.1792ZM43.5791 32.4726H47.4252V38.2987H39.7329V32.4726H43.5791ZM30.7369 33.5064V37.7165H33.3835V33.5064H30.7369ZM29.9371 37.7165V33.5064H27.2906V37.7165H29.9371ZM34.1832 32.6984V38.5245H26.4908V32.6984H34.1832Z" fill="white"/>
</svg>
