<svg width="63" height="64" viewBox="0 0 63 64" fill="none" xmlns="http://www.w3.org/2000/svg">
<path d="M28.3789 35.8844L28.4695 35.6514C28.5952 35.7003 28.7097 35.7742 28.8062 35.8686C28.9027 35.9631 28.9792 36.076 29.0314 36.2007C29.0836 36.3254 29.1104 36.4593 29.1103 36.5945M28.3789 35.8844L29.1103 36.5945M28.3789 35.8844L28.4695 35.6514C28.3453 35.6031 28.2127 35.5803 28.0796 35.5844H14.7293C14.5975 35.5844 14.467 35.6107 14.3454 35.6617C14.2238 35.7127 14.1136 35.7874 14.0208 35.8813C13.9281 35.9753 13.8547 36.0866 13.8047 36.2089C13.7547 36.3312 13.729 36.4622 13.729 36.5944V38.001V38.251H13.979H28.8603H29.1103M28.3789 35.8844L29.1103 38.251M29.1103 36.5945V38.001M29.1103 36.5945V38.001M29.1103 38.251V38.001M29.1103 38.251V38.001M13.979 39.0842H13.729V39.3342V44.0007V44.2507H13.979H20.7516H21.0016V44.0007V39.3342V39.0842H20.7516H13.979ZM22.068 39.0842H21.818V39.3342V44.0007V44.2507H22.068H28.8603H29.1103V44.0007V39.3342V39.0842H28.8603H22.068ZM13.979 45.0974H13.729V45.3474V50.0138V50.2638H13.979H20.7516H21.0016V50.0138V45.3474V45.0974H20.7516H13.979ZM21.818 50.0138V50.2643L22.0684 50.2638L28.8608 50.2505L29.1103 50.25V50.0005V45.334V45.084H28.8603H22.068H21.818V45.334V50.0138ZM29.3916 35.2918C29.7323 35.6369 29.925 36.1052 29.9267 36.5946C29.9267 36.5947 29.9267 36.5949 29.9267 36.5951L29.9267 50.6672C29.9267 50.7787 29.8829 50.885 29.806 50.9629C29.7292 51.0407 29.6257 51.0838 29.5185 51.0838H13.3208C13.2136 51.0838 13.1101 51.0407 13.0333 50.9629C12.9564 50.885 12.9126 50.7787 12.9126 50.6672V36.5948C12.9142 36.1053 13.107 35.6369 13.4477 35.2918C13.7884 34.9467 14.2493 34.7527 14.7297 34.7511H28.1096C28.59 34.7527 29.0509 34.9467 29.3916 35.2918Z" stroke="white" stroke-width="0.5"/>
<path d="M37.4315 49.5401L37.6094 49.7158L37.4315 49.5401C37.3047 49.6685 37.2188 49.8317 37.184 50.0089C37.1492 50.1861 37.167 50.3698 37.2353 50.5369C37.3037 50.704 37.4196 50.8474 37.569 50.9485C37.7185 51.0496 37.8945 51.1038 38.0748 51.1038C38.3167 51.1038 38.5481 51.0064 38.7181 50.8342C38.8881 50.6621 38.983 50.4293 38.983 50.1872C38.983 50.0066 38.9301 49.8298 38.8308 49.6791C38.7313 49.5284 38.5897 49.4105 38.4234 49.3407C38.2571 49.2709 38.0738 49.2526 37.897 49.2883C37.7203 49.3239 37.5583 49.4117 37.4315 49.5401ZM37.1179 48.678C37.4015 48.4861 37.7345 48.3839 38.0748 48.3839C38.5311 48.3839 38.9694 48.5675 39.2931 48.8953C39.6169 49.2233 39.7993 49.6687 39.7993 50.1338C39.7993 50.4806 39.6978 50.8194 39.5079 51.1073C39.318 51.3951 39.0485 51.6189 38.7337 51.751C38.419 51.883 38.0729 51.9175 37.739 51.8503C37.4051 51.783 37.0979 51.6168 36.8565 51.3724C36.6151 51.1278 36.4503 50.8159 36.3835 50.4758C36.3167 50.1357 36.3511 49.7833 36.482 49.4631C36.6129 49.143 36.8344 48.8699 37.1179 48.678Z" stroke="white" stroke-width="0.5"/>
<path d="M18.7442 53.8804H24.0688C24.1087 53.8804 24.1483 53.8964 24.1784 53.9269C24.2088 53.9577 24.227 54.0008 24.227 54.047C24.227 54.0933 24.2088 54.1363 24.1784 54.1671C24.1483 54.1977 24.1087 54.2137 24.0688 54.2137H18.7442C18.7043 54.2137 18.6647 54.1977 18.6346 54.1671L18.3063 54.4912L18.6346 54.1671C18.6042 54.1363 18.586 54.0933 18.586 54.047C18.586 54.0008 18.6042 53.9577 18.6346 53.9269C18.6647 53.8964 18.7043 53.8804 18.7442 53.8804Z" stroke="white"/>
<mask id="path-4-inside-1_4260_34899" fill="white">
<path d="M62.276 51.2338C62.069 50.9849 61.9191 50.6925 61.8372 50.3778C61.7553 50.0631 61.7433 49.7339 61.8021 49.4139C61.8811 47.6806 61.5257 47.1406 60.0514 46.354C59.7469 46.2466 59.4704 46.0709 59.2425 45.84C59.0145 45.6091 58.8411 45.3291 58.735 45.0207C57.9584 43.5274 57.4187 43.1675 55.714 43.2475C55.6021 43.2475 55.6416 44.0674 55.6416 32.7012L56.7078 33.7811C57.1994 34.2657 57.8582 34.5369 58.5441 34.5369C59.2301 34.5369 59.8889 34.2657 60.3805 33.7811L61.5783 32.5679C62.0643 32.0753 62.3372 31.4075 62.3372 30.7113C62.3372 30.015 62.0643 29.3472 61.5783 28.8547L33.8954 0.809053C33.38 0.290824 32.6833 0 31.9571 0C31.2309 0 30.5341 0.290824 30.0187 0.809053L18.3295 12.6686V9.13541C18.5757 9.13984 18.8203 9.09445 19.0489 9.00188C19.2775 8.90931 19.4856 8.77143 19.661 8.59633C19.8363 8.42123 19.9753 8.21243 20.0699 7.98218C20.1645 7.75193 20.2128 7.50487 20.2119 7.25548V5.14222C20.2119 4.64479 20.0172 4.16763 19.6706 3.81526C19.3239 3.4629 18.8535 3.26406 18.3624 3.26229H7.70652C7.46081 3.25965 7.21701 3.30628 6.98917 3.39949C6.76133 3.4927 6.55395 3.63065 6.37898 3.8054C6.20401 3.98014 6.0649 4.18822 5.96968 4.41766C5.87445 4.64709 5.82499 4.89334 5.82413 5.14222V7.22881C5.82413 7.47569 5.87214 7.72015 5.96542 7.94823C6.05869 8.17631 6.19541 8.38355 6.36776 8.55812C6.71584 8.91068 7.18793 9.10874 7.68019 9.10874C7.74601 9.10874 7.7131 8.31544 7.7131 23.3815L2.33579 28.8547C1.84987 29.3472 1.57691 30.015 1.57691 30.7113C1.57691 31.4075 1.84987 32.0753 2.33579 32.5679L3.53367 33.7811C3.77447 34.0261 4.06062 34.2205 4.37573 34.3532C4.69085 34.4859 5.02872 34.5543 5.36999 34.5544C6.57445 34.5544 7.15365 33.8345 7.73943 33.2212V52.6204C6.87635 52.7486 6.06373 53.1113 5.38804 53.6701C4.71235 54.2289 4.19887 54.9628 3.90225 55.7936C3.45719 55.7015 2.99801 55.7049 2.55432 55.8036C2.11062 55.9022 1.69226 56.0939 1.3262 56.3663C0.960131 56.6388 0.65449 56.9859 0.428974 57.3853C0.203458 57.7847 0.0630714 58.2275 0.0168648 58.6852C-0.0293418 59.1429 0.0196566 59.6054 0.160701 60.0427C0.301746 60.4801 0.531708 60.8827 0.835762 61.2245C1.13982 61.5663 1.51121 61.8398 1.92602 62.0274C2.34082 62.2149 2.78982 62.3124 3.24408 62.3134H46.4337C47.3749 63.1934 48.711 62.6534 49.5403 62.86C50.1984 63.0467 51.0278 64 52.173 64C53.3182 64 54.0949 63.0467 54.7728 62.86C55.4507 62.6734 56.6552 63.08 57.5898 62.5267C58.5244 61.9734 58.7745 60.7335 59.2747 60.2268C59.7749 59.7202 60.9926 59.4935 61.552 58.5202C62.1115 57.5469 61.6836 56.4469 61.8745 55.667C62.0654 54.887 63 54.1604 63 53.0004C62.9313 52.3533 62.6799 51.74 62.276 51.2338ZM7.14049 7.22881V5.14222C7.14049 4.99724 7.19735 4.8582 7.29856 4.75569C7.39978 4.65317 7.53705 4.59558 7.68019 4.59558H18.3427C18.4847 4.59733 18.6203 4.6557 18.72 4.75802C18.8198 4.86035 18.8758 4.99839 18.8758 5.14222V7.22881C18.8767 7.30028 18.8635 7.37122 18.8371 7.4375C18.8107 7.50378 18.7716 7.5641 18.722 7.61495C18.6724 7.6658 18.6133 7.70617 18.5482 7.73372C18.4831 7.76128 18.4132 7.77546 18.3427 7.77546H7.70652C7.63346 7.77907 7.56044 7.76761 7.49189 7.74176C7.42334 7.71591 7.36069 7.67621 7.30775 7.62509C7.25482 7.57396 7.21269 7.51247 7.18394 7.44435C7.15518 7.37623 7.1404 7.3029 7.14049 7.22881ZM9.02946 9.10874H17.0131V14.0019L9.05578 22.0483L9.02946 9.10874ZM6.27169 32.8412C6.15305 32.9619 6.01202 33.0577 5.85672 33.1231C5.70141 33.1885 5.53488 33.2221 5.3667 33.2221C5.19851 33.2221 5.03199 33.1885 4.87668 33.1231C4.72137 33.0577 4.58035 32.9619 4.4617 32.8412L3.2704 31.6279C3.1512 31.5077 3.05661 31.3649 2.99207 31.2076C2.92752 31.0503 2.8943 30.8816 2.8943 30.7113C2.8943 30.5409 2.92752 30.3722 2.99207 30.2149C3.05661 30.0576 3.1512 29.9148 3.2704 29.7946L30.9533 1.75568C31.2184 1.49662 31.5723 1.35185 31.9406 1.35185C32.3089 1.35185 32.6629 1.49662 32.9279 1.75568L60.6437 29.7946C60.7629 29.9148 60.8575 30.0576 60.9221 30.2149C60.9866 30.3722 61.0198 30.5409 61.0198 30.7113C61.0198 30.8816 60.9866 31.0503 60.9221 31.2076C60.8575 31.3649 60.7629 31.5077 60.6437 31.6279L59.4458 32.8412C59.3278 32.9617 59.1873 33.0574 59.0325 33.1227C58.8778 33.1879 58.7118 33.2216 58.5441 33.2216C58.3765 33.2216 58.2105 33.1879 58.0557 33.1227C57.901 33.0574 57.7605 32.9617 57.6424 32.8412C32.1512 6.99549 32.4211 7.33547 32.4211 7.29547C32.2978 7.17131 32.1309 7.10162 31.9571 7.10162C31.7832 7.10162 31.6164 7.17131 31.493 7.29547C31.493 7.42214 6.33751 32.7745 6.27169 32.8412ZM1.34194 59.0202C1.34248 58.6923 1.42423 58.3698 1.57969 58.0822C1.73515 57.7946 1.95935 57.5511 2.23178 57.374C2.50421 57.1969 2.81615 57.0919 3.13903 57.0685C3.46192 57.0452 3.78544 57.1042 4.07996 57.2403C4.1702 57.2825 4.26872 57.3035 4.36813 57.3017C4.46753 57.2999 4.56524 57.2753 4.65391 57.2297C4.74258 57.1842 4.81991 57.1189 4.8801 57.0387C4.94028 56.9586 4.98176 56.8657 5.00141 56.7669C5.13502 56.0826 5.46678 55.454 5.9544 54.9613C6.44202 54.4686 7.06342 54.1341 7.73943 54.0004V60.9801H3.27698C2.76378 60.9801 2.27159 60.7736 1.9087 60.4061C1.54581 60.0385 1.34194 59.54 1.34194 59.0202ZM9.05578 60.9801V31.9079L31.9538 8.71542L54.3318 31.3812V43.0208C54.2002 42.9475 54.0685 42.8608 53.9237 42.7675C52.739 42.0075 52.0216 41.7675 50.725 42.5408V36.5944C50.7233 36.0397 50.505 35.5083 50.1178 35.1162C49.7306 34.724 49.2059 34.5029 48.6583 34.5011H35.2973C34.7497 34.5029 34.2251 34.724 33.8379 35.1162C33.4507 35.5083 33.2324 36.0397 33.2306 36.5944V60.9801H9.05578ZM49.4021 38.001H34.547V36.5944C34.547 36.3928 34.626 36.1995 34.7668 36.057C34.9075 35.9145 35.0983 35.8344 35.2973 35.8344H48.6517C48.8507 35.8344 49.0416 35.9145 49.1823 36.057C49.323 36.1995 49.4021 36.3928 49.4021 36.5944V38.001ZM34.547 60.9801V39.3343H49.4021V43.2274C49.1263 43.255 48.8485 43.255 48.5728 43.2274C46.8681 43.1541 46.3349 43.4874 45.5517 45.0007C45.4424 45.3072 45.2677 45.5855 45.0402 45.8159C44.8127 46.0464 44.5379 46.2232 44.2354 46.334C42.6952 47.154 42.4254 47.7073 42.478 49.3939C42.5417 49.7155 42.5339 50.0474 42.4554 50.3656C42.3769 50.6838 42.2295 50.9804 42.0239 51.2338C41.0959 52.6671 41.0761 53.3337 42.0239 54.8337C42.2297 55.0856 42.3774 55.381 42.4559 55.6982C42.5345 56.0154 42.5421 56.3464 42.478 56.6669C42.4254 58.2935 42.6755 58.9202 44.2354 59.7202C44.5324 59.8237 44.8039 59.9911 45.0311 60.2109C45.2583 60.4307 45.4359 60.6976 45.5517 60.9934L34.547 60.9801ZM61.1703 54.1204C60.8925 54.4834 60.6908 54.9001 60.5776 55.3449C60.4645 55.7896 60.4422 56.2531 60.5121 56.7069C60.5647 57.8736 60.5121 57.9736 59.4656 58.5269C59.0427 58.6992 58.6585 58.9563 58.3362 59.2828C58.0138 59.6093 57.7599 59.9984 57.5898 60.4268C57.0567 61.4601 56.9843 61.5401 55.793 61.4868C54.6017 61.4334 54.3976 61.4268 53.022 62.3134C51.9558 62.98 51.8768 62.6134 50.6855 61.9201C50.1931 61.603 49.6164 61.4471 49.0335 61.4734C47.4407 61.4734 47.4275 61.7201 46.743 60.4268C46.5759 59.9966 46.3231 59.6059 46.0004 59.2791C45.6776 58.9522 45.2919 58.6961 44.8672 58.5269C43.8405 57.9802 43.7681 57.8602 43.8207 56.7069C43.8876 56.2531 43.8638 55.7903 43.7507 55.346C43.6376 54.9017 43.4376 54.4849 43.1625 54.1204C42.5044 53.1204 42.5044 52.9737 43.1625 51.9471C43.437 51.5822 43.6366 51.1654 43.7496 50.7212C43.8627 50.277 43.8868 49.8144 43.8207 49.3605C43.7681 48.1739 43.8207 48.0873 44.8672 47.5406C45.2899 47.3679 45.6739 47.1107 45.9962 46.7842C46.3185 46.4578 46.5725 46.0689 46.743 45.6407C47.2827 44.5874 47.4012 44.5274 48.5398 44.5807C48.9879 44.6469 49.4445 44.6221 49.8829 44.5076C50.3214 44.3932 50.7329 44.1914 51.0936 43.9141C52.1072 43.2475 52.2191 43.2475 53.2392 43.9141C53.5997 44.1917 54.0112 44.3937 54.4497 44.5082C54.8883 44.6226 55.3449 44.6473 55.793 44.5807C56.9579 44.5274 57.0501 44.5807 57.5898 45.6407C57.7619 46.0679 58.0164 46.456 58.3386 46.7822C58.6607 47.1085 59.0438 47.3663 59.4656 47.5406C60.5187 48.0939 60.5647 48.2073 60.5121 49.3605C60.4433 49.8144 60.4662 50.2776 60.5793 50.7222C60.6925 51.1668 60.8935 51.5835 61.1703 51.9471C61.8087 52.9804 61.8087 53.0871 61.1703 54.1204Z"/>
</mask>
<path d="M62.276 51.2338C62.069 50.9849 61.9191 50.6925 61.8372 50.3778C61.7553 50.0631 61.7433 49.7339 61.8021 49.4139C61.8811 47.6806 61.5257 47.1406 60.0514 46.354C59.7469 46.2466 59.4704 46.0709 59.2425 45.84C59.0145 45.6091 58.8411 45.3291 58.735 45.0207C57.9584 43.5274 57.4187 43.1675 55.714 43.2475C55.6021 43.2475 55.6416 44.0674 55.6416 32.7012L56.7078 33.7811C57.1994 34.2657 57.8582 34.5369 58.5441 34.5369C59.2301 34.5369 59.8889 34.2657 60.3805 33.7811L61.5783 32.5679C62.0643 32.0753 62.3372 31.4075 62.3372 30.7113C62.3372 30.015 62.0643 29.3472 61.5783 28.8547L33.8954 0.809053C33.38 0.290824 32.6833 0 31.9571 0C31.2309 0 30.5341 0.290824 30.0187 0.809053L18.3295 12.6686V9.13541C18.5757 9.13984 18.8203 9.09445 19.0489 9.00188C19.2775 8.90931 19.4856 8.77143 19.661 8.59633C19.8363 8.42123 19.9753 8.21243 20.0699 7.98218C20.1645 7.75193 20.2128 7.50487 20.2119 7.25548V5.14222C20.2119 4.64479 20.0172 4.16763 19.6706 3.81526C19.3239 3.4629 18.8535 3.26406 18.3624 3.26229H7.70652C7.46081 3.25965 7.21701 3.30628 6.98917 3.39949C6.76133 3.4927 6.55395 3.63065 6.37898 3.8054C6.20401 3.98014 6.0649 4.18822 5.96968 4.41766C5.87445 4.64709 5.82499 4.89334 5.82413 5.14222V7.22881C5.82413 7.47569 5.87214 7.72015 5.96542 7.94823C6.05869 8.17631 6.19541 8.38355 6.36776 8.55812C6.71584 8.91068 7.18793 9.10874 7.68019 9.10874C7.74601 9.10874 7.7131 8.31544 7.7131 23.3815L2.33579 28.8547C1.84987 29.3472 1.57691 30.015 1.57691 30.7113C1.57691 31.4075 1.84987 32.0753 2.33579 32.5679L3.53367 33.7811C3.77447 34.0261 4.06062 34.2205 4.37573 34.3532C4.69085 34.4859 5.02872 34.5543 5.36999 34.5544C6.57445 34.5544 7.15365 33.8345 7.73943 33.2212V52.6204C6.87635 52.7486 6.06373 53.1113 5.38804 53.6701C4.71235 54.2289 4.19887 54.9628 3.90225 55.7936C3.45719 55.7015 2.99801 55.7049 2.55432 55.8036C2.11062 55.9022 1.69226 56.0939 1.3262 56.3663C0.960131 56.6388 0.65449 56.9859 0.428974 57.3853C0.203458 57.7847 0.0630714 58.2275 0.0168648 58.6852C-0.0293418 59.1429 0.0196566 59.6054 0.160701 60.0427C0.301746 60.4801 0.531708 60.8827 0.835762 61.2245C1.13982 61.5663 1.51121 61.8398 1.92602 62.0274C2.34082 62.2149 2.78982 62.3124 3.24408 62.3134H46.4337C47.3749 63.1934 48.711 62.6534 49.5403 62.86C50.1984 63.0467 51.0278 64 52.173 64C53.3182 64 54.0949 63.0467 54.7728 62.86C55.4507 62.6734 56.6552 63.08 57.5898 62.5267C58.5244 61.9734 58.7745 60.7335 59.2747 60.2268C59.7749 59.7202 60.9926 59.4935 61.552 58.5202C62.1115 57.5469 61.6836 56.4469 61.8745 55.667C62.0654 54.887 63 54.1604 63 53.0004C62.9313 52.3533 62.6799 51.74 62.276 51.2338ZM7.14049 7.22881V5.14222C7.14049 4.99724 7.19735 4.8582 7.29856 4.75569C7.39978 4.65317 7.53705 4.59558 7.68019 4.59558H18.3427C18.4847 4.59733 18.6203 4.6557 18.72 4.75802C18.8198 4.86035 18.8758 4.99839 18.8758 5.14222V7.22881C18.8767 7.30028 18.8635 7.37122 18.8371 7.4375C18.8107 7.50378 18.7716 7.5641 18.722 7.61495C18.6724 7.6658 18.6133 7.70617 18.5482 7.73372C18.4831 7.76128 18.4132 7.77546 18.3427 7.77546H7.70652C7.63346 7.77907 7.56044 7.76761 7.49189 7.74176C7.42334 7.71591 7.36069 7.67621 7.30775 7.62509C7.25482 7.57396 7.21269 7.51247 7.18394 7.44435C7.15518 7.37623 7.1404 7.3029 7.14049 7.22881ZM9.02946 9.10874H17.0131V14.0019L9.05578 22.0483L9.02946 9.10874ZM6.27169 32.8412C6.15305 32.9619 6.01202 33.0577 5.85672 33.1231C5.70141 33.1885 5.53488 33.2221 5.3667 33.2221C5.19851 33.2221 5.03199 33.1885 4.87668 33.1231C4.72137 33.0577 4.58035 32.9619 4.4617 32.8412L3.2704 31.6279C3.1512 31.5077 3.05661 31.3649 2.99207 31.2076C2.92752 31.0503 2.8943 30.8816 2.8943 30.7113C2.8943 30.5409 2.92752 30.3722 2.99207 30.2149C3.05661 30.0576 3.1512 29.9148 3.2704 29.7946L30.9533 1.75568C31.2184 1.49662 31.5723 1.35185 31.9406 1.35185C32.3089 1.35185 32.6629 1.49662 32.9279 1.75568L60.6437 29.7946C60.7629 29.9148 60.8575 30.0576 60.9221 30.2149C60.9866 30.3722 61.0198 30.5409 61.0198 30.7113C61.0198 30.8816 60.9866 31.0503 60.9221 31.2076C60.8575 31.3649 60.7629 31.5077 60.6437 31.6279L59.4458 32.8412C59.3278 32.9617 59.1873 33.0574 59.0325 33.1227C58.8778 33.1879 58.7118 33.2216 58.5441 33.2216C58.3765 33.2216 58.2105 33.1879 58.0557 33.1227C57.901 33.0574 57.7605 32.9617 57.6424 32.8412C32.1512 6.99549 32.4211 7.33547 32.4211 7.29547C32.2978 7.17131 32.1309 7.10162 31.9571 7.10162C31.7832 7.10162 31.6164 7.17131 31.493 7.29547C31.493 7.42214 6.33751 32.7745 6.27169 32.8412ZM1.34194 59.0202C1.34248 58.6923 1.42423 58.3698 1.57969 58.0822C1.73515 57.7946 1.95935 57.5511 2.23178 57.374C2.50421 57.1969 2.81615 57.0919 3.13903 57.0685C3.46192 57.0452 3.78544 57.1042 4.07996 57.2403C4.1702 57.2825 4.26872 57.3035 4.36813 57.3017C4.46753 57.2999 4.56524 57.2753 4.65391 57.2297C4.74258 57.1842 4.81991 57.1189 4.8801 57.0387C4.94028 56.9586 4.98176 56.8657 5.00141 56.7669C5.13502 56.0826 5.46678 55.454 5.9544 54.9613C6.44202 54.4686 7.06342 54.1341 7.73943 54.0004V60.9801H3.27698C2.76378 60.9801 2.27159 60.7736 1.9087 60.4061C1.54581 60.0385 1.34194 59.54 1.34194 59.0202ZM9.05578 60.9801V31.9079L31.9538 8.71542L54.3318 31.3812V43.0208C54.2002 42.9475 54.0685 42.8608 53.9237 42.7675C52.739 42.0075 52.0216 41.7675 50.725 42.5408V36.5944C50.7233 36.0397 50.505 35.5083 50.1178 35.1162C49.7306 34.724 49.2059 34.5029 48.6583 34.5011H35.2973C34.7497 34.5029 34.2251 34.724 33.8379 35.1162C33.4507 35.5083 33.2324 36.0397 33.2306 36.5944V60.9801H9.05578ZM49.4021 38.001H34.547V36.5944C34.547 36.3928 34.626 36.1995 34.7668 36.057C34.9075 35.9145 35.0983 35.8344 35.2973 35.8344H48.6517C48.8507 35.8344 49.0416 35.9145 49.1823 36.057C49.323 36.1995 49.4021 36.3928 49.4021 36.5944V38.001ZM34.547 60.9801V39.3343H49.4021V43.2274C49.1263 43.255 48.8485 43.255 48.5728 43.2274C46.8681 43.1541 46.3349 43.4874 45.5517 45.0007C45.4424 45.3072 45.2677 45.5855 45.0402 45.8159C44.8127 46.0464 44.5379 46.2232 44.2354 46.334C42.6952 47.154 42.4254 47.7073 42.478 49.3939C42.5417 49.7155 42.5339 50.0474 42.4554 50.3656C42.3769 50.6838 42.2295 50.9804 42.0239 51.2338C41.0959 52.6671 41.0761 53.3337 42.0239 54.8337C42.2297 55.0856 42.3774 55.381 42.4559 55.6982C42.5345 56.0154 42.5421 56.3464 42.478 56.6669C42.4254 58.2935 42.6755 58.9202 44.2354 59.7202C44.5324 59.8237 44.8039 59.9911 45.0311 60.2109C45.2583 60.4307 45.4359 60.6976 45.5517 60.9934L34.547 60.9801ZM61.1703 54.1204C60.8925 54.4834 60.6908 54.9001 60.5776 55.3449C60.4645 55.7896 60.4422 56.2531 60.5121 56.7069C60.5647 57.8736 60.5121 57.9736 59.4656 58.5269C59.0427 58.6992 58.6585 58.9563 58.3362 59.2828C58.0138 59.6093 57.7599 59.9984 57.5898 60.4268C57.0567 61.4601 56.9843 61.5401 55.793 61.4868C54.6017 61.4334 54.3976 61.4268 53.022 62.3134C51.9558 62.98 51.8768 62.6134 50.6855 61.9201C50.1931 61.603 49.6164 61.4471 49.0335 61.4734C47.4407 61.4734 47.4275 61.7201 46.743 60.4268C46.5759 59.9966 46.3231 59.6059 46.0004 59.2791C45.6776 58.9522 45.2919 58.6961 44.8672 58.5269C43.8405 57.9802 43.7681 57.8602 43.8207 56.7069C43.8876 56.2531 43.8638 55.7903 43.7507 55.346C43.6376 54.9017 43.4376 54.4849 43.1625 54.1204C42.5044 53.1204 42.5044 52.9737 43.1625 51.9471C43.437 51.5822 43.6366 51.1654 43.7496 50.7212C43.8627 50.277 43.8868 49.8144 43.8207 49.3605C43.7681 48.1739 43.8207 48.0873 44.8672 47.5406C45.2899 47.3679 45.6739 47.1107 45.9962 46.7842C46.3185 46.4578 46.5725 46.0689 46.743 45.6407C47.2827 44.5874 47.4012 44.5274 48.5398 44.5807C48.9879 44.6469 49.4445 44.6221 49.8829 44.5076C50.3214 44.3932 50.7329 44.1914 51.0936 43.9141C52.1072 43.2475 52.2191 43.2475 53.2392 43.9141C53.5997 44.1917 54.0112 44.3937 54.4497 44.5082C54.8883 44.6226 55.3449 44.6473 55.793 44.5807C56.9579 44.5274 57.0501 44.5807 57.5898 45.6407C57.7619 46.0679 58.0164 46.456 58.3386 46.7822C58.6607 47.1085 59.0438 47.3663 59.4656 47.5406C60.5187 48.0939 60.5647 48.2073 60.5121 49.3605C60.4433 49.8144 60.4662 50.2776 60.5793 50.7222C60.6925 51.1668 60.8935 51.5835 61.1703 51.9471C61.8087 52.9804 61.8087 53.0871 61.1703 54.1204Z" stroke="white" mask="url(#path-4-inside-1_4260_34899)"/>
<path d="M55.7006 50.4568L55.7007 50.4569L55.7076 50.455C55.7946 50.4312 55.8869 50.4374 55.9702 50.4728C56.0535 50.5082 56.1235 50.5711 56.1684 50.6521C56.2134 50.7331 56.2306 50.8274 56.2168 50.9198C56.2033 51.011 56.1606 51.0945 56.0961 51.1578C54.7318 52.3856 53.7457 53.281 53.0259 53.9347C52.3749 54.5258 51.9416 54.9192 51.6433 55.1819C51.3239 55.4631 51.1796 55.5755 51.0977 55.6222C51.0644 55.6413 51.0531 55.6423 51.0512 55.6426C51.0418 55.644 51.0359 55.644 51.0118 55.6438C51.0014 55.6437 50.9875 55.6437 50.9685 55.6437L50.967 55.6437C50.8616 55.6443 50.7595 55.6033 50.6826 55.5283C50.6826 55.5282 50.6825 55.5282 50.6824 55.5281L48.1248 53.0241C48.0863 52.9841 48.0557 52.9368 48.0348 52.8846C48.0135 52.8316 48.0027 52.7748 48.0031 52.7174C48.0035 52.6601 48.0151 52.6034 48.037 52.5507C48.059 52.4981 48.0909 52.4505 48.1308 52.4107C48.1706 52.3708 48.2177 52.3395 48.2691 52.3184C48.3206 52.2972 48.3755 52.2865 48.4309 52.2869C48.4862 52.2873 48.541 52.2987 48.5922 52.3206C48.6434 52.3425 48.69 52.3745 48.7293 52.4149L48.7293 52.4149L48.7334 52.419C48.8664 52.5494 49.0777 52.7551 49.3206 52.9916C49.84 53.4971 50.5039 54.1435 50.8576 54.4972L51.026 54.6656L51.2024 54.5055C52.3469 53.4664 53.1981 52.6918 53.833 52.1141C54.5369 51.4734 54.975 51.0747 55.2524 50.8257C55.5143 50.5907 55.6219 50.4992 55.6721 50.4628C55.6804 50.4613 55.69 50.4594 55.7006 50.4568Z" stroke="white" stroke-width="0.5"/>
</svg>
